<svg width="18" height="21" viewBox="0 0 18 21" fill="none" xmlns="http://www.w3.org/2000/svg">
<path d="M16.9 20.5C16.743 20.5 16.588 20.45 16.458 20.356L9 14.928L1.542 20.358C1.314 20.522 1.012 20.548 0.76 20.418C0.51 20.291 0.35 20.033 0.35 19.751V2.60001C0.35 1.36001 1.36 0.350006 2.6 0.350006H15.398C16.638 0.350006 17.648 1.36001 17.648 2.60001V19.75C17.648 20.032 17.49 20.29 17.238 20.418C17.132 20.473 17.015 20.5 16.898 20.5H16.9ZM9 13.25C9.155 13.25 9.31 13.298 9.44 13.394L16.15 18.277V2.60001C16.15 2.18801 15.813 1.85001 15.4 1.85001H2.6C2.187 1.85001 1.85 2.18801 1.85 2.60001V18.277L8.56 13.394C8.69 13.298 8.845 13.25 9 13.25V13.25Z" fill="black"/>
</svg>
