<svg width="22" height="21" viewBox="0 0 22 21" fill="none" xmlns="http://www.w3.org/2000/svg">
<path d="M21.46 5.57L11.357 0.115C11.134 -0.00500038 10.867 -0.00500038 10.644 0.115L0.543 5.57C0.179 5.767 0.043 6.222 0.24 6.587C0.375 6.837 0.634 6.98 0.9 6.98C1.02 6.98 1.143 6.95 1.256 6.89L2.071 6.45L3.7 17.963C3.914 19.178 5.008 20.025 6.358 20.025H15.64C16.992 20.025 18.085 19.177 18.303 17.938L19.929 6.448L20.747 6.89C21.111 7.083 21.567 6.95 21.764 6.586C21.96 6.223 21.824 5.768 21.46 5.57V5.57ZM16.822 17.703C16.715 18.309 16.119 18.525 15.642 18.525H6.36C5.88 18.525 5.285 18.309 5.182 17.727L3.48 5.69L11 1.628L18.522 5.688L16.822 17.703V17.703Z" fill="black"/>
<path d="M7.22 10.184C7.22 12.268 8.915 13.964 11 13.964C13.085 13.964 14.78 12.268 14.78 10.184C14.78 8.1 13.085 6.404 11 6.404C8.915 6.404 7.22 8.1 7.22 10.184ZM13.28 10.184C13.28 11.442 12.258 12.464 11 12.464C9.742 12.464 8.72 11.442 8.72 10.184C8.72 8.926 9.742 7.904 11 7.904C12.258 7.904 13.28 8.926 13.28 10.184Z" fill="black"/>
</svg>
